<svg xmlns="http://www.w3.org/2000/svg" width="168" height="40"><path d="M11.793 26.973h11.449a31.835 31.835 0 0 1-.2 3.265 12.1 12.1 0 0 1-.646 2.752 10.62 10.62 0 0 1-1.422 2.68q-3.1 4.322-9.136 4.322a12.96 12.96 0 0 1-6.148-1.456 10.112 10.112 0 0 1-4.181-4.124A12.086 12.086 0 0 1 0 28.362a13.768 13.768 0 0 1 .862-4.852 10.339 10.339 0 0 1 2.471-3.767 11.03 11.03 0 0 1 3.821-2.4 13.631 13.631 0 0 1 4.884-.842 13.187 13.187 0 0 1 4.209.654 9.74 9.74 0 0 1 3.376 2.073 11.259 11.259 0 0 1 2.413 3.43l-5.466 2.285a5.36 5.36 0 0 0-1.85-2.584 4.732 4.732 0 0 0-2.94-.934 5.016 5.016 0 0 0-3.114.987 6.486 6.486 0 0 0-1.965 2.619 8.717 8.717 0 0 0-.674 3.362 8.539 8.539 0 0 0 .674 3.348 6.237 6.237 0 0 0 2.021 2.576 5.19 5.19 0 0 0 3.153.987 5.689 5.689 0 0 0 2.251-.432 4.041 4.041 0 0 0 1.648-1.3 4.165 4.165 0 0 0 .731-2.13h-4.712v-4.469zm19.345-11.986v24.282H25.77V14.987h5.368zm11.494 8.783a10.969 10.969 0 0 1 4.524.929 7.633 7.633 0 0 1 1.853 1.159 8.269 8.269 0 0 1 1.48 1.63 7.6 7.6 0 0 1 1.235 4.3 7.419 7.419 0 0 1-1.235 4.275 8.164 8.164 0 0 1-3.333 2.775 10.967 10.967 0 0 1-4.524.943 11.169 11.169 0 0 1-4.539-.94 9.313 9.313 0 0 1-1.861-1.179 7.76 7.76 0 0 1-1.458-1.6 7.425 7.425 0 0 1-1.235-4.277 7.6 7.6 0 0 1 1.235-4.305 8.033 8.033 0 0 1 3.319-2.789 11.138 11.138 0 0 1 4.539-.921zm0 4.615a3.389 3.389 0 0 0-1.824.474 2.783 2.783 0 0 0-1.206 1.234 3.653 3.653 0 0 0-.416 1.707 3.26 3.26 0 0 0 .947 2.41 3.3 3.3 0 0 0 2.5.961 3.335 3.335 0 0 0 2.528-.961 3.259 3.259 0 0 0 .919-2.41 3.654 3.654 0 0 0-.417-1.707 2.893 2.893 0 0 0-1.206-1.234 3.387 3.387 0 0 0-1.826-.474zM59.5 24.252v2.443h.057a5.149 5.149 0 0 1 4.88-2.649h1.019v5.1a4.882 4.882 0 0 0-2.253-.486 3.279 3.279 0 0 0-2.885 1.2 5.707 5.707 0 0 0-.818 3.34v6.07h-5.369V24.252H59.5zM70.117 15.5a2.985 2.985 0 0 1 1.512.414 2.772 2.772 0 0 1 1.079 1.071 2.936 2.936 0 0 1 .417 1.5 3.027 3.027 0 0 1-1.5 2.571 2.98 2.98 0 0 1-1.512.415 2.948 2.948 0 0 1-1.5-.415 2.71 2.71 0 0 1-1.094-1.085 3.013 3.013 0 0 1-.417-1.486 3.091 3.091 0 0 1 .417-1.5 2.745 2.745 0 0 1 1.094-1.071 2.952 2.952 0 0 1 1.504-.414zm2.692 8.737v15.021H67.44V24.241h5.369zm20.048.011v15.021h-5.369v-1.648h-.058a4.455 4.455 0 0 1-1.914 1.61 6.47 6.47 0 0 1-2.648.555 7.168 7.168 0 0 1-3.929-1.116 7.4 7.4 0 0 1-2.735-2.93 8.4 8.4 0 0 1-.978-3.976 8.033 8.033 0 0 1 .561-3.046 7.543 7.543 0 0 1 3.972-4.326 7.258 7.258 0 0 1 3.037-.622 7.516 7.516 0 0 1 2.634.482 5.393 5.393 0 0 1 2.058 1.475v-1.475h5.369zm-8.636 4.133a3.259 3.259 0 0 0-1.827.474 2.779 2.779 0 0 0-1.209 1.234 3.492 3.492 0 0 0-.417 1.707 3.252 3.252 0 0 0 .921 2.41 3.817 3.817 0 0 0 5.065 0 3.252 3.252 0 0 0 .906-2.41 3.65 3.65 0 0 0-.4-1.707 2.9 2.9 0 0 0-1.21-1.234 3.259 3.259 0 0 0-1.829-.47zm25.028-6.3h-6.959v3.685h6.31v4.856h-6.31v8.645h-5.784V17.226h12.743v4.856zm11.083 1.688a10.973 10.973 0 0 1 4.524.929 7.633 7.633 0 0 1 1.853 1.159 8.233 8.233 0 0 1 1.479 1.63 7.593 7.593 0 0 1 1.236 4.3 7.412 7.412 0 0 1-1.236 4.275 8.161 8.161 0 0 1-3.332 2.775 10.967 10.967 0 0 1-4.524.943 11.169 11.169 0 0 1-4.539-.94 9.284 9.284 0 0 1-1.861-1.179 7.76 7.76 0 0 1-1.458-1.6 7.425 7.425 0 0 1-1.235-4.277 7.6 7.6 0 0 1 1.235-4.305 8.033 8.033 0 0 1 3.319-2.789 11.134 11.134 0 0 1 4.539-.92zm0 4.615a3.389 3.389 0 0 0-1.824.474 2.783 2.783 0 0 0-1.206 1.234 3.653 3.653 0 0 0-.416 1.707 3.26 3.26 0 0 0 .947 2.41 3.3 3.3 0 0 0 2.5.961 3.335 3.335 0 0 0 2.528-.961 3.259 3.259 0 0 0 .919-2.41 3.654 3.654 0 0 0-.417-1.707 2.893 2.893 0 0 0-1.206-1.234 3.389 3.389 0 0 0-1.826-.473zm19.48-4.615a10.969 10.969 0 0 1 4.524.929 7.633 7.633 0 0 1 1.853 1.159 8.269 8.269 0 0 1 1.48 1.63 7.6 7.6 0 0 1 1.235 4.3 7.419 7.419 0 0 1-1.235 4.275 8.17 8.17 0 0 1-3.333 2.775 10.967 10.967 0 0 1-4.524.943 11.169 11.169 0 0 1-4.539-.94 9.313 9.313 0 0 1-1.861-1.179 7.76 7.76 0 0 1-1.458-1.6 7.425 7.425 0 0 1-1.235-4.277 7.6 7.6 0 0 1 1.235-4.305 8.033 8.033 0 0 1 3.319-2.789 11.138 11.138 0 0 1 4.538-.92zm0 4.615a3.389 3.389 0 0 0-1.824.474 2.783 2.783 0 0 0-1.206 1.234 3.653 3.653 0 0 0-.416 1.707 3.26 3.26 0 0 0 .947 2.41 3.3 3.3 0 0 0 2.5.961 3.335 3.335 0 0 0 2.528-.961 3.259 3.259 0 0 0 .919-2.41 3.654 3.654 0 0 0-.417-1.707 2.893 2.893 0 0 0-1.206-1.234 3.389 3.389 0 0 0-1.827-.473zm22.821 10.884v-1.647h-.057a4.343 4.343 0 0 1-1.909 1.61 6.307 6.307 0 0 1-2.641.555 7.134 7.134 0 0 1-3.918-1.116 8.029 8.029 0 0 1-1.592-1.322 7.772 7.772 0 0 1-1.134-1.608 8.423 8.423 0 0 1-.976-3.976 8.335 8.335 0 0 1 .56-3.046 7.7 7.7 0 0 1 1.564-2.588 7.229 7.229 0 0 1 2.411-1.743 7.146 7.146 0 0 1 3.028-.616 7.448 7.448 0 0 1 2.612.485 4.764 4.764 0 0 1 2.052 1.471v-10.74H168v24.282h-5.369zm-3.249-10.884a3.366 3.366 0 0 0-1.818.474 2.886 2.886 0 0 0-1.2 1.234 3.664 3.664 0 0 0-.415 1.707 3.437 3.437 0 1 0 6.873 0 3.665 3.665 0 0 0-.416-1.707 2.776 2.776 0 0 0-1.2-1.234 3.368 3.368 0 0 0-1.826-.473zM49.435 19.821s3.829-6.448-.464-12.112S31.919.237 29.383 0c0 0 2.88.835 4.273 8.263S35.913 21.4 45.98 20.608a21.54 21.54 0 0 0-6.823-13.341 20.086 20.086 0 0 1 10.278 12.554zm1.754-.121s-.475-4.251 3.094-6.2 10.645.066 12.022.536c0 0-1.7-.235-4.17 3.311s-4.267 6.323-9.323 3.572a12.371 12.371 0 0 1 6.69-5.37 11.556 11.556 0 0 0-8.313 4.151z" fill="#fff" fill-rule="evenodd"/></svg>